<svg width="24" height="24" viewBox="0 0 24 24" fill="none" xmlns="http://www.w3.org/2000/svg">
<path d="M11.4 11.9998L15.3 8.0998C15.4833 7.91647 15.575 7.68314 15.575 7.3998C15.575 7.11647 15.4833 6.88314 15.3 6.6998C15.1166 6.51647 14.8833 6.4248 14.6 6.4248C14.3166 6.4248 14.0833 6.51647 13.9 6.6998L9.29995 11.2998C9.19995 11.3998 9.12912 11.5081 9.08745 11.6248C9.04578 11.7415 9.02495 11.8665 9.02495 11.9998C9.02495 12.1331 9.04578 12.2581 9.08745 12.3748C9.12912 12.4915 9.19995 12.5998 9.29995 12.6998L13.9 17.2998C14.0833 17.4831 14.3166 17.5748 14.6 17.5748C14.8833 17.5748 15.1166 17.4831 15.3 17.2998C15.4833 17.1165 15.575 16.8831 15.575 16.5998C15.575 16.3165 15.4833 16.0831 15.3 15.8998L11.4 11.9998Z" fill="#747474"/>
</svg>
